<svg width="100" height="72" viewBox="0 0 100 72" fill="none" xmlns="http://www.w3.org/2000/svg">
<ellipse cx="3.47137" cy="2.82449" rx="2.5" ry="2.62469" transform="rotate(-0.0145949 3.47137 2.82449)" fill="#706FE5"/>
<ellipse cx="3.48211" cy="46.6089" rx="2.5" ry="2.62469" transform="rotate(-0.0145949 3.48211 46.6089)" fill="#706FE5"/>
<ellipse cx="40.861" cy="2.81497" rx="2.5" ry="2.62469" transform="rotate(-0.0145949 40.861 2.81497)" fill="#706FE5"/>
<ellipse cx="40.8727" cy="46.5994" rx="2.5" ry="2.62469" transform="rotate(-0.0145949 40.8727 46.5994)" fill="#706FE5"/>
<ellipse cx="78.2516" cy="2.80545" rx="2.5" ry="2.62469" transform="rotate(-0.0145949 78.2516 2.80545)" fill="#706FE5"/>
<ellipse cx="78.2624" cy="46.5899" rx="2.5" ry="2.62469" transform="rotate(-0.0145949 78.2624 46.5899)" fill="#706FE5"/>
<ellipse cx="3.47723" cy="24.7166" rx="2.5" ry="2.62469" transform="rotate(-0.0145949 3.47723 24.7166)" fill="#706FE5"/>
<ellipse cx="3.48797" cy="68.5008" rx="2.5" ry="2.62469" transform="rotate(-0.0145949 3.48797 68.5008)" fill="#706FE5"/>
<ellipse cx="40.8669" cy="24.7071" rx="2.5" ry="2.62469" transform="rotate(-0.0145949 40.8669 24.7071)" fill="#706FE5"/>
<ellipse cx="40.8786" cy="68.4912" rx="2.5" ry="2.62469" transform="rotate(-0.0145949 40.8786 68.4912)" fill="#706FE5"/>
<ellipse cx="78.2565" cy="24.6975" rx="2.5" ry="2.62469" transform="rotate(-0.0145949 78.2565 24.6975)" fill="#706FE5"/>
<ellipse cx="78.2682" cy="68.4817" rx="2.5" ry="2.62469" transform="rotate(-0.0145949 78.2682 68.4817)" fill="#706FE5"/>
<ellipse cx="22.1667" cy="2.81961" rx="2.5" ry="2.62469" transform="rotate(-0.0145949 22.1667 2.81961)" fill="#706FE5"/>
<ellipse cx="22.1774" cy="46.604" rx="2.5" ry="2.62469" transform="rotate(-0.0145949 22.1774 46.604)" fill="#706FE5"/>
<ellipse cx="59.5563" cy="2.81009" rx="2.5" ry="2.62469" transform="rotate(-0.0145949 59.5563 2.81009)" fill="#706FE5"/>
<ellipse cx="59.5671" cy="46.5945" rx="2.5" ry="2.62469" transform="rotate(-0.0145949 59.5671 46.5945)" fill="#706FE5"/>
<ellipse cx="96.946" cy="2.80057" rx="2.5" ry="2.62469" transform="rotate(-0.0145949 96.946 2.80057)" fill="#706FE5"/>
<ellipse cx="96.9577" cy="46.585" rx="2.5" ry="2.62469" transform="rotate(-0.0145949 96.9577 46.585)" fill="#706FE5"/>
<ellipse cx="22.1716" cy="24.7117" rx="2.5" ry="2.62469" transform="rotate(-0.0145949 22.1716 24.7117)" fill="#706FE5"/>
<ellipse cx="22.1833" cy="68.4959" rx="2.5" ry="2.62469" transform="rotate(-0.0145949 22.1833 68.4959)" fill="#706FE5"/>
<ellipse cx="59.5622" cy="24.7022" rx="2.5" ry="2.62469" transform="rotate(-0.0145949 59.5622 24.7022)" fill="#706FE5"/>
<ellipse cx="59.5729" cy="68.4864" rx="2.5" ry="2.62469" transform="rotate(-0.0145949 59.5729 68.4864)" fill="#706FE5"/>
<ellipse cx="96.9518" cy="24.6927" rx="2.5" ry="2.62469" transform="rotate(-0.0145949 96.9518 24.6927)" fill="#706FE5"/>
<ellipse cx="96.9636" cy="68.4768" rx="2.5" ry="2.62469" transform="rotate(-0.0145949 96.9636 68.4768)" fill="#706FE5"/>
</svg>
